<svg xmlns="http://www.w3.org/2000/svg" viewBox="0 0 500 500"><g id="freepik--Device--inject-2"><path d="M447.87,304.56c.13-1.25-.64-2.53-2.29-3.49L281.32,206.24a12.2,12.2,0,0,0-11.1,0l-104.28,60.6a4,4,0,0,0-2.27,3.07v10c0,1.2.72,2.42,2.31,3.34L330.24,378a12.2,12.2,0,0,0,11.1,0l104.27-60.6a3.93,3.93,0,0,0,2.27-3.07h0v-9.81Z" style="fill:#455a64"></path><path d="M277.39,235.67a.72.72,0,0,1,0,1.36L270.59,241a2.54,2.54,0,0,1-2.34,0L247.7,229.12c-.65-.38-.66-1,0-1.36l6.8-3.95a2.6,2.6,0,0,1,2.35,0Z" style="fill:#263238"></path><path d="M274.78,221.92c.65.38.66,1,0,1.35l-6.8,4a2.61,2.61,0,0,1-2.34,0L258.27,223a.72.72,0,0,1,0-1.36l6.81-4a2.61,2.61,0,0,1,2.34,0Z" style="fill:#263238"></path><path d="M286.24,228.53a.72.72,0,0,1,0,1.36l-6.8,4a2.54,2.54,0,0,1-2.34,0l-7.38-4.26a.71.71,0,0,1,0-1.35l6.8-4a2.61,2.61,0,0,1,2.34,0Z" style="fill:#263238"></path><path d="M332,255c.65.37.66,1,0,1.35l-6.8,4a2.61,2.61,0,0,1-2.34,0L315.53,256a.72.72,0,0,1,0-1.36l6.81-3.95a2.52,2.52,0,0,1,2.33,0Z" style="fill:#263238"></path><path d="M343.49,261.59a.71.71,0,0,1,0,1.35l-6.81,4a2.61,2.61,0,0,1-2.34,0L327,262.64c-.65-.38-.66-1,0-1.36l6.8-3.95a2.57,2.57,0,0,1,2.34,0Z" style="fill:#263238"></path><path d="M351.2,257.11a.71.71,0,0,1,0,1.35l-3.94,2.29a2.54,2.54,0,0,1-2.34,0l-7.38-4.26a.71.71,0,0,1,0-1.35l3.94-2.29a2.57,2.57,0,0,1,2.34,0Z" style="fill:#263238"></path><path d="M339.75,250.5a.71.71,0,0,1,0,1.35l-3.94,2.29a2.57,2.57,0,0,1-2.34,0l-7.38-4.26a.71.71,0,0,1,0-1.35l3.93-2.29a2.54,2.54,0,0,1,2.34,0Z" style="fill:#263238"></path><path d="M328.3,243.89a.71.71,0,0,1,0,1.35l-3.94,2.29a2.54,2.54,0,0,1-2.34,0l-7.38-4.26c-.65-.38-.65-1,0-1.35l3.94-2.29a2.54,2.54,0,0,1,2.34,0Z" style="fill:#263238"></path><path d="M306.6,264.79a.71.71,0,0,1,0,1.35l-6.8,4a2.61,2.61,0,0,1-2.34,0l-7.38-4.26a.72.72,0,0,1,0-1.36l6.81-4a2.54,2.54,0,0,1,2.34,0Z" style="fill:#263238"></path><path d="M322.65,261.8c.65.37.64,1,0,1.36l-6.81,3.95a2.54,2.54,0,0,1-2.34,0l-7.37-4.26c-.65-.37-.66-1,0-1.35l6.8-4a2.6,2.6,0,0,1,2.35,0Z" style="fill:#263238"></path><path d="M431.36,303.39a.71.71,0,0,1,0,1.35L427.43,307a2.54,2.54,0,0,1-2.34,0l-7.38-4.26a.71.71,0,0,1,0-1.35l3.94-2.29a2.54,2.54,0,0,1,2.34,0Z" style="fill:#263238"></path><path d="M265.82,266.93a.71.71,0,0,1,0,1.35l-6.81,4a2.61,2.61,0,0,1-2.34,0L249.3,268a.72.72,0,0,1,0-1.36l6.8-3.95a2.57,2.57,0,0,1,2.34,0Z" style="fill:#263238"></path><path d="M334.52,306.6a.71.71,0,0,1,0,1.35l-6.8,3.95a2.54,2.54,0,0,1-2.34,0L318,307.64a.71.71,0,0,1,0-1.35l6.81-4a2.54,2.54,0,0,1,2.34,0Z" style="fill:#263238"></path><path d="M362.65,263.72a.72.72,0,0,1,0,1.36l-3.94,2.28a2.54,2.54,0,0,1-2.34,0L349,263.1a.71.71,0,0,1,0-1.35l3.93-2.29a2.61,2.61,0,0,1,2.34,0Z" style="fill:#263238"></path><path d="M419.9,296.78a.71.71,0,0,1,0,1.35L416,300.42a2.61,2.61,0,0,1-2.34,0l-7.37-4.26a.72.72,0,0,1,0-1.36l3.94-2.28a2.54,2.54,0,0,1,2.34,0Z" style="fill:#263238"></path><path d="M300,248.74a.72.72,0,0,1,0,1.36l-6.81,4a2.58,2.58,0,0,1-2.33,0l-7.38-4.26c-.65-.38-.66-1,0-1.36l6.8-3.95a2.6,2.6,0,0,1,2.35,0Z" style="fill:#263238"></path><path d="M311.34,255.27a.72.72,0,0,1,0,1.36l-6.8,3.95a2.54,2.54,0,0,1-2.34,0l-7.38-4.26a.71.71,0,0,1,0-1.35l6.81-4a2.61,2.61,0,0,1,2.34,0Z" style="fill:#263238"></path><path d="M295.5,258.37a.73.73,0,0,1,0,1.37l-6.8,3.95a2.57,2.57,0,0,1-2.34,0L279,259.43a.72.72,0,0,1,0-1.36l6.81-3.95a2.54,2.54,0,0,1,2.34,0Z" style="fill:#263238"></path><path d="M231.47,247.09a.72.72,0,0,1,0,1.36l-6.8,4a2.54,2.54,0,0,1-2.34,0L215,248.14a.71.71,0,0,1,0-1.35l6.81-4a2.61,2.61,0,0,1,2.34,0Z" style="fill:#263238"></path><path d="M242.92,253.71a.71.71,0,0,1,0,1.35l-6.81,4a2.61,2.61,0,0,1-2.34,0l-7.38-4.26a.72.72,0,0,1,0-1.36l6.8-4a2.54,2.54,0,0,1,2.34,0Z" style="fill:#263238"></path><g style="isolation:isolate"><path d="M273.29,245.56a.71.71,0,0,1,0,1.35l-6.81,4a2.61,2.61,0,0,1-2.34,0l-7.37-4.26c-.65-.38-.66-1,0-1.36l6.8-3.95a2.56,2.56,0,0,1,2.35,0Z" style="fill:#263238"></path><path d="M256.32,248.6a.72.72,0,0,1,0,1.36l-6.81,3.95a2.57,2.57,0,0,1-2.34,0L226,241.7c-.65-.37-.66-1,0-1.35l6.8-4a2.63,2.63,0,0,1,2.35,0Z" style="fill:#263238"></path><path d="M284.4,252a.71.71,0,0,1,0,1.35l-6.8,4a2.61,2.61,0,0,1-2.34,0L267.88,253a.72.72,0,0,1,0-1.36l6.81-3.95a2.54,2.54,0,0,1,2.34,0Z" style="fill:#263238"></path><path d="M267.72,255.18a.71.71,0,0,1,0,1.35l-6.81,4a2.58,2.58,0,0,1-2.33,0l-7.38-4.26c-.65-.38-.66-1,0-1.36l6.81-4a2.54,2.54,0,0,1,2.34,0Z" style="fill:#263238"></path><path d="M278.82,261.58a.73.73,0,0,1,0,1.37L272,266.9a2.6,2.6,0,0,1-2.35,0l-7.37-4.26a.72.72,0,0,1,0-1.36l6.8-3.95a2.56,2.56,0,0,1,2.35,0Z" style="fill:#263238"></path></g><path d="M261.83,238.93a.72.72,0,0,1,0,1.36l-6.81,4a2.61,2.61,0,0,1-2.34,0l-15.56-9a.71.71,0,0,1,0-1.35l6.81-4a2.61,2.61,0,0,1,2.34,0Z" style="fill:#263238"></path><path d="M288.73,242.22a.72.72,0,0,1,0,1.36l-6.8,3.95a2.54,2.54,0,0,1-2.34,0l-7.38-4.26a.71.71,0,0,1,0-1.35l6.81-4a2.61,2.61,0,0,1,2.34,0Z" style="fill:#263238"></path><path d="M346,313.21a.71.71,0,0,1,0,1.35l-6.81,4a2.61,2.61,0,0,1-2.34,0l-7.38-4.26a.72.72,0,0,1,0-1.36l6.8-3.95a2.54,2.54,0,0,1,2.34,0Z" style="fill:#263238"></path><path d="M352.94,323a.72.72,0,0,1,0,1.36l-1.82,1.06a2.57,2.57,0,0,1-2.34,0l-8-4.63c-.65-.37-.66-1,0-1.35l1.82-1.06a2.54,2.54,0,0,1,2.34,0Z" style="fill:#263238"></path><path d="M367.64,312.87a.71.71,0,0,1,0,1.35l-6.81,4a2.58,2.58,0,0,1-2.33,0l-7.38-4.26c-.65-.38-.66-1,0-1.36l6.8-3.95a2.56,2.56,0,0,1,2.35,0Z" style="fill:#263238"></path><path d="M402.5,320.16a.71.71,0,0,1,0,1.35l-6.81,4a2.61,2.61,0,0,1-2.34,0l-14.46-8.35a.72.72,0,0,1,0-1.36l6.8-3.95a2.54,2.54,0,0,1,2.34,0Z" style="fill:#263238"></path><path d="M391.42,326.6a.71.71,0,0,1,0,1.35l-6.8,4a2.61,2.61,0,0,1-2.34,0l-20.06-11.58a.72.72,0,0,1,0-1.36l6.81-4a2.54,2.54,0,0,1,2.34,0Z" style="fill:#263238"></path><path d="M384.32,309.66a.71.71,0,0,1,0,1.35l-6.8,4a2.61,2.61,0,0,1-2.34,0l-7.38-4.26a.72.72,0,0,1,0-1.36l6.81-4a2.54,2.54,0,0,1,2.34,0Z" style="fill:#263238"></path><path d="M356.53,306.45a.72.72,0,0,1,0,1.36l-6.81,4a2.61,2.61,0,0,1-2.34,0L340,307.51a.72.72,0,0,1,0-1.36l6.8-3.95a2.6,2.6,0,0,1,2.35,0Z" style="fill:#263238"></path><path d="M373.21,303.24a.72.72,0,0,1,0,1.36l-6.81,4a2.61,2.61,0,0,1-2.34,0l-7.38-4.26a.72.72,0,0,1,0-1.36l6.8-3.95a2.6,2.6,0,0,1,2.35,0Z" style="fill:#263238"></path><path d="M345.43,300.05a.71.71,0,0,1,0,1.35l-6.81,4a2.61,2.61,0,0,1-2.34,0l-7.37-4.26c-.66-.38-.66-1,0-1.36l6.81-3.95a2.56,2.56,0,0,1,2.35,0Z" style="fill:#263238"></path><path d="M362.12,296.84a.71.71,0,0,1,0,1.35l-6.81,4a2.61,2.61,0,0,1-2.34,0l-7.37-4.26c-.65-.38-.66-1,0-1.36l6.81-3.95a2.56,2.56,0,0,1,2.35,0Z" style="fill:#263238"></path><path d="M289.92,268a.71.71,0,0,1,0,1.35l-6.8,4a2.61,2.61,0,0,1-2.34,0l-7.38-4.26a.72.72,0,0,1,0-1.36l6.81-3.95a2.54,2.54,0,0,1,2.34,0Z" style="fill:#263238"></path><path d="M320.59,248.37a.71.71,0,0,1,0,1.35l-6.81,4a2.61,2.61,0,0,1-2.34,0l-7.37-4.26c-.65-.38-.66-1,0-1.36l6.8-3.95a2.54,2.54,0,0,1,2.34,0Z" style="fill:#263238"></path><path d="M254.37,260.32a.71.71,0,0,1,0,1.35l-6.81,4a2.61,2.61,0,0,1-2.34,0l-7.37-4.26c-.65-.38-.66-1,0-1.36l6.8-3.95a2.54,2.54,0,0,1,2.34,0Z" style="fill:#263238"></path><path d="M364.14,329.47c.65.37.66,1,0,1.35l-1.82,1.06a2.54,2.54,0,0,1-2.34,0l-8-4.63a.71.71,0,0,1,0-1.35l1.83-1.06a2.54,2.54,0,0,1,2.34,0Z" style="fill:#263238"></path><path d="M375.35,335.94a.71.71,0,0,1,0,1.35l-1.83,1.06a2.54,2.54,0,0,1-2.34,0l-8-4.63a.72.72,0,0,1,0-1.36l1.83-1.05a2.54,2.54,0,0,1,2.34,0Z" style="fill:#263238"></path><path d="M369.13,326.57a.72.72,0,0,1,0,1.36L367.31,329a2.61,2.61,0,0,1-2.34,0l-8-4.63c-.65-.38-.66-1,0-1.36l1.82-1.06a2.61,2.61,0,0,1,2.34,0Z" style="fill:#263238"></path><path d="M259,281.65l-29.14,16.94a1.47,1.47,0,0,0,0,2.55l48.87,28.22a3.68,3.68,0,0,0,3.7,0l29.15-16.93a1.47,1.47,0,0,0,0-2.55l-48.87-28.22A3.7,3.7,0,0,0,259,281.65Z" style="fill:#263238"></path><path d="M330.24,368.1,166,273.27a4,4,0,0,1-2.31-3.14v9.74c0,1.2.72,2.42,2.31,3.34L330.24,378a11.12,11.12,0,0,0,5.11,1.31v-9.94A11.12,11.12,0,0,1,330.24,368.1Z" style="fill:#37474f"></path><path d="M447.87,304.56a4,4,0,0,1-2.26,2.94L341.34,368.1a11.55,11.55,0,0,1-6,1.31v9.94a11.46,11.46,0,0,0,6-1.31l104.27-60.6a3.93,3.93,0,0,0,2.27-3.07h0v-9.81Z" style="fill:#263238"></path><path d="M264.42,330.36v1.29c0,1.75-1.24,2.46-2.77,1.58l-25.56-14.76a6.08,6.08,0,0,1-2.75-4.76v-1.3Z" style="fill:#263238"></path><path d="M449.31,157.84l-164.55-95a4.92,4.92,0,0,0-5,0h0l-3.47,2.29h0A4.89,4.89,0,0,0,274,69.28V195a12.91,12.91,0,0,0,6.46,11.19l164.54,95a4.93,4.93,0,0,0,5.14-.1h0l3.44-2.27h0a4.9,4.9,0,0,0,2.19-4.1V169A12.93,12.93,0,0,0,449.31,157.84Z" style="fill:#263238"></path><path d="M285,198.4a4,4,0,0,1-2-3.44V76.17l158.58,91.6a4,4,0,0,1,2,3.44V290Z" style="fill:#969340"></path><path d="M285,198.4a4,4,0,0,1-2-3.44V76.17l158.58,91.6a4,4,0,0,1,2,3.44V290Z" style="opacity:0.30000000000000004"></path><path d="M285,198.4a4,4,0,0,1-2-3.44V76.17l158.58,91.6a4,4,0,0,1,2,3.44V290Z" style="fill:#fff;opacity:0.1"></path><path d="M449.31,157.84l-164.55-95a4.92,4.92,0,0,0-5,0h0l-3.47,2.29h0a4.9,4.9,0,0,1,5.22-.16L446,160a13,13,0,0,1,5.39,6l3.39-2A12.9,12.9,0,0,0,449.31,157.84Z" style="fill:#455a64"></path><path d="M451.4,166.07a13,13,0,0,1,1.07,5.14V296.89a4.92,4.92,0,0,1-2.32,4.2h0l3.44-2.27h0a4.9,4.9,0,0,0,2.19-4.1V169a13,13,0,0,0-1-4.92Z" style="fill:#37474f"></path><path d="M305.4,230.67a.71.71,0,0,1,0,1.35l-3.94,2.29a2.61,2.61,0,0,1-2.34,0l-7.38-4.26a.72.72,0,0,1,0-1.36l3.94-2.28a2.54,2.54,0,0,1,2.34,0Z" style="fill:#263238"></path><path d="M297.69,235.14a.72.72,0,0,1,0,1.36l-6.81,3.95a2.54,2.54,0,0,1-2.34,0l-7.37-4.26c-.65-.37-.66-1,0-1.35l6.8-4a2.61,2.61,0,0,1,2.34,0Z" style="fill:#263238"></path><path d="M316.85,237.27a.72.72,0,0,1,0,1.36l-3.94,2.29a2.58,2.58,0,0,1-2.33,0l-7.38-4.26a.72.72,0,0,1,0-1.36l3.94-2.29a2.61,2.61,0,0,1,2.34,0Z" style="fill:#263238"></path><path d="M309.14,241.75a.72.72,0,0,1,0,1.36l-6.8,3.95a2.54,2.54,0,0,1-2.34,0l-7.38-4.26a.71.71,0,0,1,0-1.35l6.8-4a2.61,2.61,0,0,1,2.34,0Z" style="fill:#263238"></path><path d="M282.49,217.44c.65.38.66,1,0,1.36l-3.94,2.28a2.54,2.54,0,0,1-2.34,0l-7.38-4.26a.71.71,0,0,1,0-1.35l3.94-2.29a2.58,2.58,0,0,1,2.33,0Z" style="fill:#263238"></path><path d="M293.94,224.05c.66.38.66,1,0,1.36L290,227.7a2.58,2.58,0,0,1-2.33,0l-7.38-4.26c-.65-.38-.66-1,0-1.36l3.94-2.29a2.61,2.61,0,0,1,2.34,0Z" style="fill:#263238"></path><path d="M354.94,268.2c.65.38.66,1,0,1.35l-6.8,4a2.61,2.61,0,0,1-2.34,0l-7.38-4.26a.72.72,0,0,1,0-1.36l6.81-3.95a2.52,2.52,0,0,1,2.33,0Z" style="fill:#263238"></path><path d="M334,268.32a.72.72,0,0,1,0,1.36l-6.8,4a2.61,2.61,0,0,1-2.34,0l-7.38-4.26a.72.72,0,0,1,0-1.36l6.81-3.95a2.54,2.54,0,0,1,2.34,0Z" style="fill:#263238"></path><path d="M374.1,270.33a.72.72,0,0,1,0,1.36L370.17,274a2.61,2.61,0,0,1-2.34,0l-7.37-4.26c-.65-.38-.66-1,0-1.36l3.94-2.29a2.61,2.61,0,0,1,2.34,0Z" style="fill:#263238"></path><path d="M317.71,271.2a.71.71,0,0,1,0,1.35l-6.81,4a2.61,2.61,0,0,1-2.34,0l-7.37-4.26c-.65-.38-.66-1,0-1.36l6.8-3.95a2.56,2.56,0,0,1,2.35,0Z" style="fill:#263238"></path><path d="M301,274.41a.71.71,0,0,1,0,1.35l-6.81,4a2.61,2.61,0,0,1-2.34,0l-7.38-4.26a.72.72,0,0,1,0-1.36l6.8-4a2.56,2.56,0,0,1,2.35,0Z" style="fill:#263238"></path><path d="M366.4,274.81a.72.72,0,0,1,0,1.36l-6.8,3.95a2.57,2.57,0,0,1-2.34,0l-7.38-4.26a.71.71,0,0,1,0-1.35l6.81-4a2.61,2.61,0,0,1,2.34,0Z" style="fill:#263238"></path><path d="M345.26,274.85a.72.72,0,0,1,0,1.36l-6.81,4a2.54,2.54,0,0,1-2.34,0l-7.37-4.26a.71.71,0,0,1,0-1.35l6.8-3.95a2.6,2.6,0,0,1,2.35,0Z" style="fill:#263238"></path><path d="M385.55,276.94a.72.72,0,0,1,0,1.36l-3.94,2.29a2.61,2.61,0,0,1-2.34,0l-7.38-4.26a.72.72,0,0,1,0-1.36l3.93-2.29a2.61,2.61,0,0,1,2.34,0Z" style="fill:#263238"></path><path d="M328.8,277.6a.73.73,0,0,1,0,1.37l-6.8,3.95a2.6,2.6,0,0,1-2.35,0l-7.37-4.26c-.65-.38-.66-1,0-1.36l6.8-3.95a2.56,2.56,0,0,1,2.35,0Z" style="fill:#263238"></path><path d="M312.12,280.81a.73.73,0,0,1,0,1.37l-6.8,3.95a2.6,2.6,0,0,1-2.35,0l-7.37-4.26c-.65-.38-.66-1,0-1.36l6.8-3.95a2.56,2.56,0,0,1,2.35,0Z" style="fill:#263238"></path><path d="M377.84,281.42c.65.38.66,1,0,1.36l-6.8,4a2.54,2.54,0,0,1-2.34,0l-7.38-4.26a.71.71,0,0,1,0-1.35l6.81-4a2.61,2.61,0,0,1,2.34,0Z" style="fill:#263238"></path><path d="M356.56,281.38a.72.72,0,0,1,0,1.36l-6.8,3.95a2.6,2.6,0,0,1-2.35,0L340,282.43a.72.72,0,0,1,0-1.36l6.8-3.95a2.56,2.56,0,0,1,2.35,0Z" style="fill:#263238"></path><path d="M339.91,284a.71.71,0,0,1,0,1.35l-6.8,4a2.61,2.61,0,0,1-2.34,0l-7.38-4.26a.72.72,0,0,1,0-1.36l6.81-3.95a2.54,2.54,0,0,1,2.34,0Z" style="fill:#263238"></path><path d="M323.23,287.23a.71.71,0,0,1,0,1.35l-6.81,4a2.58,2.58,0,0,1-2.33,0l-7.38-4.26a.72.72,0,0,1,0-1.36l6.8-3.95a2.56,2.56,0,0,1,2.35,0Z" style="fill:#263238"></path><path d="M367.86,287.9a.72.72,0,0,1,0,1.36l-6.81,4a2.57,2.57,0,0,1-2.34,0L351.35,289c-.65-.38-.66-1,0-1.36l6.81-4a2.56,2.56,0,0,1,2.35,0Z" style="fill:#263238"></path><path d="M389.3,288a.72.72,0,0,1,0,1.36l-6.8,3.95a2.54,2.54,0,0,1-2.34,0l-7.38-4.26a.71.71,0,0,1,0-1.35l6.81-4a2.61,2.61,0,0,1,2.34,0Z" style="fill:#263238"></path><path d="M351,290.43a.71.71,0,0,1,0,1.35l-6.8,4a2.61,2.61,0,0,1-2.34,0l-7.38-4.26a.72.72,0,0,1,0-1.36l6.81-3.95a2.54,2.54,0,0,1,2.34,0Z" style="fill:#263238"></path><path d="M334.33,293.64a.71.71,0,0,1,0,1.35l-6.8,4a2.61,2.61,0,0,1-2.34,0l-7.38-4.26a.72.72,0,0,1,0-1.36l6.81-3.95a2.54,2.54,0,0,1,2.34,0Z" style="fill:#263238"></path><path d="M379.16,294.43a.72.72,0,0,1,0,1.36l-6.81,3.95a2.54,2.54,0,0,1-2.34,0l-7.37-4.26c-.65-.37-.66-1,0-1.35l6.8-4a2.63,2.63,0,0,1,2.35,0Z" style="fill:#263238"></path><path d="M400.75,294.65a.71.71,0,0,1,0,1.35L394,300a2.61,2.61,0,0,1-2.34,0l-7.38-4.26a.72.72,0,0,1,0-1.36l6.8-3.95a2.54,2.54,0,0,1,2.34,0Z" style="fill:#263238"></path><path d="M323.08,300a.71.71,0,0,1,0,1.35l-6.8,4a2.61,2.61,0,0,1-2.34,0l-53.18-30.71c-.65-.38-.66-1,0-1.36l6.8-4a2.54,2.54,0,0,1,2.34,0Z" style="fill:#263238"></path><path d="M390.47,301a.71.71,0,0,1,0,1.35l-6.8,4a2.61,2.61,0,0,1-2.34,0L374,302a.72.72,0,0,1,0-1.36l6.81-3.95a2.54,2.54,0,0,1,2.34,0Z" style="fill:#263238"></path><path d="M401.77,307.48a.72.72,0,0,1,0,1.36l-6.81,4a2.61,2.61,0,0,1-2.34,0l-7.38-4.26a.72.72,0,0,1,0-1.36l6.8-3.95a2.6,2.6,0,0,1,2.35,0Z" style="fill:#263238"></path><path d="M423.65,307.87a.71.71,0,0,1,0,1.35l-6.81,4a2.61,2.61,0,0,1-2.34,0L395.68,302.3a.71.71,0,0,1,0-1.35l6.81-3.95a2.54,2.54,0,0,1,2.34,0Z" style="fill:#263238"></path><path d="M413.08,314a.72.72,0,0,1,0,1.36l-6.8,3.95a2.54,2.54,0,0,1-2.34,0l-7.38-4.26a.71.71,0,0,1,0-1.35l6.81-4a2.57,2.57,0,0,1,2.34,0Z" style="fill:#263238"></path><path d="M397,283.55c.65.38.66,1,0,1.36l-3.94,2.29a2.61,2.61,0,0,1-2.34,0l-7.37-4.26c-.65-.38-.66-1,0-1.36l3.94-2.29a2.61,2.61,0,0,1,2.34,0Z" style="fill:#263238"></path><path d="M408.46,290.17a.71.71,0,0,1,0,1.35l-3.93,2.29a2.61,2.61,0,0,1-2.34,0l-7.38-4.26c-.65-.38-.65-1,0-1.35l3.94-2.29a2.54,2.54,0,0,1,2.34,0Z" style="fill:#263238"></path></g><g id="freepik--speech-bubbles--inject-2"><path d="M99.72,119.91h0Z" style="fill:none"></path><path d="M121.44,115.46a5.1,5.1,0,0,0-2.34,4c0,1.49,1.06,2.07,2.35,1.32a5.09,5.09,0,0,0,2.33-4C123.78,115.3,122.72,114.71,121.44,115.46Z" style="fill:#fff"></path><path d="M113.15,120.24a5.11,5.11,0,0,0-2.34,4c0,1.49,1.06,2.08,2.35,1.33a5.09,5.09,0,0,0,2.33-4C115.49,120.09,114.43,119.5,113.15,120.24Z" style="fill:#fff"></path><path d="M104.87,130.4a5.11,5.11,0,0,0,2.33-4c0-1.49-1-2.09-2.34-1.34a5.08,5.08,0,0,0-2.33,4C102.53,130.55,103.57,131.15,104.87,130.4Z" style="fill:#fff"></path><path d="M120.79,102.26l-25.5,14.63a5.05,5.05,0,0,0-1.85,1.88,4.92,4.92,0,0,0-.65,2.44v14.65a4.92,4.92,0,0,0,7.52,4l4.43-2.53.4.65.07.06h0l0,0h0c.73.49,2,1.17,2.3,1.32v0a.27.27,0,0,0,.34-.16l1.63-4.63-3.4,1.94h0l19.67-11.24a5,5,0,0,0,2.51-4.32V106.31C128.31,102.72,123,101,120.79,102.26ZM104.87,130.4c-1.3.75-2.34.15-2.34-1.34a5.08,5.08,0,0,1,2.33-4c1.29-.75,2.33-.15,2.34,1.34A5.11,5.11,0,0,1,104.87,130.4Zm8.29-4.79c-1.29.75-2.35.16-2.35-1.33a5.11,5.11,0,0,1,2.34-4c1.28-.74,2.34-.15,2.34,1.34A5.09,5.09,0,0,1,113.16,125.61Zm8.29-4.79c-1.29.75-2.35.17-2.35-1.32a5.1,5.1,0,0,1,2.34-4c1.28-.75,2.34-.16,2.34,1.33A5.09,5.09,0,0,1,121.45,120.82Z" style="fill:#969340"></path><path d="M105.14,138a.18.18,0,0,0,.07.05h0l0,0h0c.73.49,2,1.17,2.3,1.32v0a.23.23,0,0,1-.16-.11l-1.58-2.56.31-.18h0l-1.39.8Z" style="fill:#fff;opacity:0.2"></path><path d="M98.39,121.59a5,5,0,0,1,1.33-1.67h0a4.33,4.33,0,0,1,.61-.41l25.5-14.63a1.66,1.66,0,0,1,2.48,1.44c0-3.59-5.29-5.33-7.52-4l-25.5,14.63a5.05,5.05,0,0,0-1.85,1.88Z" style="fill:#fff;opacity:0.4"></path><path d="M97.83,138.47V123.82a3.81,3.81,0,0,1,0-.59,4.92,4.92,0,0,1,.52-1.64l-5-2.82a4.92,4.92,0,0,0-.65,2.44v14.65a4.92,4.92,0,0,0,7.52,4A1.66,1.66,0,0,1,97.83,138.47Z" style="fill:#fff;opacity:0.2"></path><path d="M255.73,59.38a9.9,9.9,0,0,1,4.5,7.79l-.08,26.16c0,2.87-2,4-4.52,2.58L251,93.26a1.27,1.27,0,0,0-1.76.5l-3.4,6.36-3.31-10.24a5,5,0,0,0-2.3-2.84L219.05,74.79A9.89,9.89,0,0,1,214.56,67l.07-26.17c0-2.86,2-4,4.53-2.58Z" style="fill:#969340"></path><polygon points="236.14 55.21 245.56 73.33 240.23 70.25 240.2 79.11 231.96 74.35 231.99 65.5 226.66 62.42 236.14 55.21" style="fill:#fff"></polygon></g><g id="freepik--Windows--inject-2"><path d="M335.91,124.44l-.25,89.09a5.59,5.59,0,0,0,2.52,4.37l125.26,72.31v2.87l3.07-1.94h0l.09-.06h0a1.83,1.83,0,0,0,.66-1.56l.26-92.9-3.16,2Z" style="fill:#f5f5f5"></path><path d="M465,188.38,338.47,115.32a1.66,1.66,0,0,0-2,0v0l-3,1.88,2.4,1.37v5.94L464.36,198.6l3.16-2v-3.87A5.52,5.52,0,0,0,465,188.38Z" style="fill:#969340"></path><path d="M464.36,198.6l-.26,92.91c0,1.6-1.14,2.25-2.53,1.44L335,219.89a5.56,5.56,0,0,1-2.53-4.36l.27-92.9Z" style="fill:#f5f5f5"></path><path d="M336.4,120.06a2.43,2.43,0,0,1,1.1,1.91c0,.7-.5,1-1.11.63a2.43,2.43,0,0,1-1.1-1.91C335.29,120,335.79,119.71,336.4,120.06Z" style="fill:#f5f5f5"></path><path d="M339.62,121.92a2.42,2.42,0,0,1,1.1,1.91c0,.69-.5,1-1.11.63a2.42,2.42,0,0,1-1.1-1.91C338.51,121.85,339,121.56,339.62,121.92Z" style="fill:#f5f5f5"></path><path d="M342.83,123.77a2.42,2.42,0,0,1,1.1,1.91c0,.7-.49,1-1.11.64a2.47,2.47,0,0,1-1.1-1.91C341.72,123.7,342.22,123.42,342.83,123.77Z" style="fill:#f5f5f5"></path><path d="M461.86,190.37a5.55,5.55,0,0,1,2.51,4.37v3.86l-131.59-76v-3.87c0-1.61,1.14-2.25,2.54-1.44ZM339.61,124.46c.61.35,1.11.06,1.11-.63a2.42,2.42,0,0,0-1.1-1.91c-.62-.36-1.11-.07-1.11.63a2.42,2.42,0,0,0,1.1,1.91m3.21,1.86c.62.35,1.11.06,1.11-.64a2.42,2.42,0,0,0-1.1-1.91c-.61-.35-1.11-.07-1.11.64a2.47,2.47,0,0,0,1.1,1.91m-6.43-3.72c.61.36,1.11.07,1.11-.63a2.43,2.43,0,0,0-1.1-1.91c-.61-.35-1.11-.07-1.11.63a2.43,2.43,0,0,0,1.1,1.91" style="fill:#969340"></path><g style="opacity:0.2"><path d="M461.86,190.37a5.55,5.55,0,0,1,2.51,4.37v3.86l-131.59-76v-3.87c0-1.61,1.14-2.25,2.54-1.44ZM339.61,124.46c.61.35,1.11.06,1.11-.63a2.42,2.42,0,0,0-1.1-1.91c-.62-.36-1.11-.07-1.11.63a2.42,2.42,0,0,0,1.1,1.91m3.21,1.86c.62.35,1.11.06,1.11-.64a2.42,2.42,0,0,0-1.1-1.91c-.61-.35-1.11-.07-1.11.64a2.47,2.47,0,0,0,1.1,1.91m-6.43-3.72c.61.36,1.11.07,1.11-.63a2.43,2.43,0,0,0-1.1-1.91c-.61-.35-1.11-.07-1.11.63a2.43,2.43,0,0,0,1.1,1.91" style="fill:#fff"></path></g><path d="M464.1,291.51a1.81,1.81,0,0,1-.66,1.55v0l3.07-1.94h0l.09-.06h0a1.83,1.83,0,0,0,.66-1.56l.26-92.9-3.16,2Z" style="opacity:0.1"></path><path d="M465,188.38,338.47,115.32a1.66,1.66,0,0,0-2,0v0l-3,1.88a1.81,1.81,0,0,1,1.78.19l126.54,73.05a5.55,5.55,0,0,1,2.51,4.37v3.86l3.16-2v-3.87A5.52,5.52,0,0,0,465,188.38Z" style="fill:#fff;opacity:0.5"></path><polygon points="361.89 179.2 361.79 213.26 353.76 208.62 353.72 222.15 361.75 226.79 353.72 222.15 353.85 174.56 361.89 179.2" style="fill:#969340"></polygon><polygon points="373.99 170.8 373.86 215.85 365.82 211.21 365.77 229.11 373.81 233.75 365.77 229.11 365.95 166.16 373.99 170.8" style="fill:#969340"></polygon><polygon points="386 190.24 385.9 226.36 377.86 221.72 377.82 236.06 385.86 240.7 377.82 236.06 377.96 185.6 386 190.24" style="fill:#969340"></polygon><polygon points="398.04 203.82 397.95 235.2 389.91 230.56 389.88 243.02 397.91 247.66 389.88 243.02 390 199.18 398.04 203.82" style="fill:#969340"></polygon><polygon points="349.81 180.96 349.73 208.78 341.69 204.14 341.66 215.19 349.7 219.83 341.66 215.19 341.77 176.32 349.81 180.96" style="fill:#969340"></polygon><polygon points="410.04 226.01 409.98 246.49 401.95 241.85 401.93 249.98 409.96 254.62 401.93 249.98 402.01 221.38 410.04 226.01" style="fill:#969340"></polygon><polygon points="422.11 227.77 422.04 251.97 414 247.33 413.98 256.94 422.01 261.58 413.98 256.94 414.07 223.13 422.11 227.77" style="fill:#969340"></polygon><polygon points="434.2 222.56 434.1 255.47 426.07 250.83 426.03 263.9 434.07 268.54 426.03 263.9 426.16 217.92 434.2 222.56" style="fill:#969340"></polygon><polygon points="446.28 218.81 446.16 259.38 438.13 254.74 438.08 270.86 446.12 275.49 438.08 270.86 438.25 214.18 446.28 218.81" style="fill:#969340"></polygon><polygon points="458.29 240.32 458.2 270.48 450.17 265.84 450.13 277.81 458.17 282.45 450.13 277.81 450.25 235.69 458.29 240.32" style="fill:#969340"></polygon><polygon points="385.9 226.36 385.86 240.7 377.82 236.06 377.86 221.72 385.9 226.36" style="fill:#969340"></polygon><polygon points="397.95 235.2 397.91 247.66 389.88 243.02 389.91 230.56 397.95 235.2" style="fill:#969340"></polygon><polygon points="349.73 208.78 349.7 219.83 341.66 215.19 341.69 204.14 349.73 208.78" style="fill:#969340"></polygon><polygon points="409.98 246.49 409.96 254.62 401.93 249.98 401.95 241.85 409.98 246.49" style="fill:#969340"></polygon><polygon points="434.1 255.47 434.07 268.54 426.03 263.9 426.07 250.83 434.1 255.47" style="fill:#969340"></polygon><polygon points="446.16 259.38 446.12 275.49 438.08 270.86 438.13 254.74 446.16 259.38" style="fill:#969340"></polygon><polygon points="361.79 213.26 361.75 226.79 353.72 222.15 353.76 208.62 361.79 213.26" style="fill:#969340"></polygon><polygon points="373.86 215.85 373.81 233.75 365.77 229.11 365.82 211.21 373.86 215.85" style="fill:#969340"></polygon><polygon points="422.04 251.97 422.01 261.58 413.98 256.94 414 247.33 422.04 251.97" style="fill:#969340"></polygon><polygon points="458.2 270.48 458.17 282.45 450.13 277.81 450.17 265.84 458.2 270.48" style="fill:#969340"></polygon><g style="opacity:0.2"><polygon points="385.9 226.36 385.86 240.7 377.82 236.06 377.86 221.72 385.9 226.36"></polygon></g><polygon points="397.95 235.2 397.91 247.66 389.88 243.02 389.91 230.56 397.95 235.2" style="opacity:0.2"></polygon><polygon points="349.73 208.78 349.7 219.83 341.66 215.19 341.69 204.14 349.73 208.78" style="opacity:0.2"></polygon><polygon points="409.98 246.49 409.96 254.62 401.93 249.98 401.95 241.85 409.98 246.49" style="opacity:0.2"></polygon><polygon points="434.1 255.47 434.07 268.54 426.03 263.9 426.07 250.83 434.1 255.47" style="opacity:0.2"></polygon><polygon points="446.16 259.38 446.12 275.49 438.08 270.86 438.13 254.74 446.16 259.38" style="opacity:0.2"></polygon><polygon points="361.79 213.26 361.75 226.79 353.72 222.15 353.76 208.62 361.79 213.26" style="opacity:0.2"></polygon><polygon points="373.86 215.85 373.81 233.75 365.77 229.11 365.82 211.21 373.86 215.85" style="opacity:0.2"></polygon><polygon points="422.04 251.97 422.01 261.58 413.98 256.94 414 247.33 422.04 251.97" style="opacity:0.2"></polygon><polygon points="458.2 270.48 458.17 282.45 450.13 277.81 450.17 265.84 458.2 270.48" style="opacity:0.2"></polygon><polygon points="374.01 161.72 373.99 168.36 365.96 163.72 365.98 157.08 374.01 161.72" style="fill:#969340"></polygon><polygon points="349.83 175.36 349.82 178.53 341.78 173.89 341.79 170.72 349.83 175.36" style="fill:#969340"></polygon><polygon points="410.05 221.89 410.05 223.58 402.02 218.94 402.02 217.25 410.05 221.89" style="fill:#969340"></polygon><polygon points="398.05 197.49 398.04 201.38 390.01 196.74 390.02 192.85 398.05 197.49" style="fill:#969340"></polygon><polygon points="386.02 182.96 386.01 187.81 377.97 183.17 377.98 178.32 386.02 182.96" style="fill:#969340"></polygon><polygon points="361.91 172.33 361.89 176.76 353.86 172.12 353.87 167.69 361.91 172.33" style="fill:#969340"></polygon><polygon points="434.22 215.93 434.2 220.13 426.17 215.49 426.18 211.29 434.22 215.93" style="fill:#969340"></polygon><polygon points="458.31 234.25 458.3 237.89 450.26 233.25 450.27 229.61 458.31 234.25" style="fill:#969340"></polygon><polygon points="422.12 222.89 422.12 225.33 414.08 220.69 414.09 218.25 422.12 222.89" style="fill:#969340"></polygon><polygon points="446.3 210.64 446.28 216.38 438.25 211.75 438.27 206 446.3 210.64" style="fill:#969340"></polygon><g style="opacity:0.5"><polygon points="374.01 161.72 373.99 168.36 365.96 163.72 365.98 157.08 374.01 161.72" style="fill:#fff"></polygon><polygon points="349.83 175.36 349.82 178.53 341.78 173.89 341.79 170.72 349.83 175.36" style="fill:#fff"></polygon><polygon points="410.05 221.89 410.05 223.58 402.02 218.94 402.02 217.25 410.05 221.89" style="fill:#fff"></polygon><polygon points="398.05 197.49 398.04 201.38 390.01 196.74 390.02 192.85 398.05 197.49" style="fill:#fff"></polygon><polygon points="386.02 182.96 386.01 187.81 377.97 183.17 377.98 178.32 386.02 182.96" style="fill:#fff"></polygon><polygon points="361.91 172.33 361.89 176.76 353.86 172.12 353.87 167.69 361.91 172.33" style="fill:#fff"></polygon><polygon points="434.22 215.93 434.2 220.13 426.17 215.49 426.18 211.29 434.22 215.93" style="fill:#fff"></polygon><polygon points="458.31 234.25 458.3 237.89 450.26 233.25 450.27 229.61 458.31 234.25" style="fill:#fff"></polygon><polygon points="422.12 222.89 422.12 225.33 414.08 220.69 414.09 218.25 422.12 222.89" style="fill:#fff"></polygon><polygon points="446.3 210.64 446.28 216.38 438.25 211.75 438.27 206 446.3 210.64" style="fill:#fff"></polygon></g><path d="M382.55,210.29l.46.28c7.5,4.62,13.12,15.05,17.18,23.63l.7,1.47c4,8.48,8.15,17.24,14.32,22.89a24.47,24.47,0,0,0,15.73,6.51c2.08.1,4.13,0,6.11-.1a46.65,46.65,0,0,1,8.89.14,25.4,25.4,0,0,1,9.12,3.19,28.4,28.4,0,0,1,7.6,6.45,65.57,65.57,0,0,1,4.78,6.81c.93,1.46,1.9,3,2.9,4.37a28.12,28.12,0,0,0,4,4.52,1.3,1.3,0,0,1,1.7-.73,3,3,0,0,1,.58.26,5.45,5.45,0,0,1,2.36,3.5c.31,1.69-.49,2.74-1.8,2.35a2.26,2.26,0,0,1-.58-.25,5.4,5.4,0,0,1-2.36-3.51,38.58,38.58,0,0,1-4.64-5.35c-1-1.47-2-3-3-4.51a61.12,61.12,0,0,0-4.54-6.5,26.21,26.21,0,0,0-7-5.92,24.13,24.13,0,0,0-8.67-3,46.57,46.57,0,0,0-8.73-.14c-2,.1-4.07.2-6.18.1a25.65,25.65,0,0,1-11.83-3.41,26.8,26.8,0,0,1-4.81-3.54c-6.58-6-10.86-15.07-15-23.81l-.69-1.47c-3.89-8.21-9.25-18.19-16.2-22.47l-.43-.26c-3.8-2.19-7.76-2.53-12.41-1.06-1,.33-2.07.72-3.07,1.09a23.54,23.54,0,0,1-8.82,2.06,15.86,15.86,0,0,1-7.54-2.26,20,20,0,0,1-2.43-1.65,1.54,1.54,0,0,1-2.08.13A4.55,4.55,0,0,1,345,209c-1.16-1.44-1.57-3.39-.89-4.35.45-.64,1.28-.67,2.12-.18a4.33,4.33,0,0,1,1.21,1.06,5.32,5.32,0,0,1,1.22,3.18,17.61,17.61,0,0,0,2.08,1.4,14.4,14.4,0,0,0,7,2.06c3.13,0,5.89-1,8.56-2,1-.38,2.06-.77,3.11-1.11A15.55,15.55,0,0,1,382.55,210.29Z" style="fill:#969340"></path><g style="opacity:0.7000000000000001"><path d="M382.55,210.29l.46.28c7.5,4.62,13.12,15.05,17.18,23.63l.7,1.47c4,8.48,8.15,17.24,14.32,22.89a24.47,24.47,0,0,0,15.73,6.51c2.08.1,4.13,0,6.11-.1a46.65,46.65,0,0,1,8.89.14,25.4,25.4,0,0,1,9.12,3.19,28.4,28.4,0,0,1,7.6,6.45,65.57,65.57,0,0,1,4.78,6.81c.93,1.46,1.9,3,2.9,4.37a28.12,28.12,0,0,0,4,4.52,1.3,1.3,0,0,1,1.7-.73,3,3,0,0,1,.58.26,5.45,5.45,0,0,1,2.36,3.5c.31,1.69-.49,2.74-1.8,2.35a2.26,2.26,0,0,1-.58-.25,5.4,5.4,0,0,1-2.36-3.51,38.58,38.58,0,0,1-4.64-5.35c-1-1.47-2-3-3-4.51a61.12,61.12,0,0,0-4.54-6.5,26.21,26.21,0,0,0-7-5.92,24.13,24.13,0,0,0-8.67-3,46.57,46.57,0,0,0-8.73-.14c-2,.1-4.07.2-6.18.1a25.65,25.65,0,0,1-11.83-3.41,26.8,26.8,0,0,1-4.81-3.54c-6.58-6-10.86-15.07-15-23.81l-.69-1.47c-3.89-8.21-9.25-18.19-16.2-22.47l-.43-.26c-3.8-2.19-7.76-2.53-12.41-1.06-1,.33-2.07.72-3.07,1.09a23.54,23.54,0,0,1-8.82,2.06,15.86,15.86,0,0,1-7.54-2.26,20,20,0,0,1-2.43-1.65,1.54,1.54,0,0,1-2.08.13A4.55,4.55,0,0,1,345,209c-1.16-1.44-1.57-3.39-.89-4.35.45-.64,1.28-.67,2.12-.18a4.33,4.33,0,0,1,1.21,1.06,5.32,5.32,0,0,1,1.22,3.18,17.61,17.61,0,0,0,2.08,1.4,14.4,14.4,0,0,0,7,2.06c3.13,0,5.89-1,8.56-2,1-.38,2.06-.77,3.11-1.11A15.55,15.55,0,0,1,382.55,210.29Z" style="fill:#fff"></path></g><path d="M190.8,86.9l-.25,89a5.53,5.53,0,0,0,2.52,4.36l125.17,72.26v2.87l3.06-1.94h0l.08-.06h0a1.79,1.79,0,0,0,.66-1.56l.27-92.84-3.16,2Z" style="fill:#f5f5f5"></path><path d="M319.81,150.79l-126.45-73a1.68,1.68,0,0,0-2,0v0l-3,1.88,2.4,1.37V86.9L319.16,161l3.16-2v-3.86A5.53,5.53,0,0,0,319.81,150.79Z" style="fill:#969340"></path><path d="M319.16,161l-.26,92.84c0,1.6-1.14,2.24-2.54,1.44l-126.45-73a5.57,5.57,0,0,1-2.52-4.36l.26-92.84Z" style="fill:#f5f5f5"></path><ellipse cx="191.28" cy="83.79" rx="0.9" ry="1.56" transform="matrix(0.86, -0.5, 0.5, 0.86, -16.2, 107.46)" style="fill:#f5f5f5"></ellipse><path d="M194.5,84.37a2.45,2.45,0,0,1,1.1,1.91c0,.7-.5,1-1.11.63a2.43,2.43,0,0,1-1.1-1.9C193.39,84.3,193.89,84,194.5,84.37Z" style="fill:#f5f5f5"></path><path d="M197.71,86.23a2.41,2.41,0,0,1,1.1,1.91c0,.7-.49,1-1.1.63a2.42,2.42,0,0,1-1.11-1.91C196.61,86.16,197.1,85.88,197.71,86.23Z" style="fill:#f5f5f5"></path><path d="M316.66,152.78a5.55,5.55,0,0,1,2.51,4.36V161L187.65,85.08l0-3.86c0-1.6,1.14-2.25,2.53-1.44ZM194.49,86.91c.61.36,1.11.07,1.11-.63a2.45,2.45,0,0,0-1.1-1.91c-.61-.35-1.11-.07-1.11.64a2.43,2.43,0,0,0,1.1,1.9m3.22,1.86c.61.35,1.1.07,1.1-.63a2.41,2.41,0,0,0-1.1-1.91c-.61-.35-1.1-.07-1.11.63a2.42,2.42,0,0,0,1.11,1.91m-6.43-3.71c.61.35,1.1.07,1.11-.63a2.42,2.42,0,0,0-1.1-1.91c-.61-.35-1.11-.07-1.11.63a2.41,2.41,0,0,0,1.1,1.91" style="fill:#969340"></path><path d="M292.56,173.06a12.5,12.5,0,0,1,3.09,2.6,43.1,43.1,0,0,1,4.14,6.3c1.31,2.17,2.86,4.38,4.65,5.56a3.84,3.84,0,0,0,2,.68l-.14,48.64L200.14,175.56a16.72,16.72,0,0,1,6.2-6,7.71,7.71,0,0,1,7.19.63,12.63,12.63,0,0,1,1.9,1.38c2.69,2.35,4.91,6.11,7.67,8l.55.35c3.76,2.17,6.69-.15,8.93-2.47l10-10.46c2.14-2.23,4.91-4.46,8.54-2.36l.28.16c5.5,3.48,7.79,13.38,13,18.53a12,12,0,0,0,2.47,1.92,7.47,7.47,0,0,0,9.54-1.24c2.7-2.92,4.12-7.49,6.95-10.22C285.56,171.7,289.11,171.07,292.56,173.06Z" style="fill:#969340"></path><g style="opacity:0.5"><path d="M292.56,173.06a12.5,12.5,0,0,1,3.09,2.6,43.1,43.1,0,0,1,4.14,6.3c1.31,2.17,2.86,4.38,4.65,5.56a3.84,3.84,0,0,0,2,.68l-.14,48.64L200.14,175.56a16.72,16.72,0,0,1,6.2-6,7.71,7.71,0,0,1,7.19.63,12.63,12.63,0,0,1,1.9,1.38c2.69,2.35,4.91,6.11,7.67,8l.55.35c3.76,2.17,6.69-.15,8.93-2.47l10-10.46c2.14-2.23,4.91-4.46,8.54-2.36l.28.16c5.5,3.48,7.79,13.38,13,18.53a12,12,0,0,0,2.47,1.92,7.47,7.47,0,0,0,9.54-1.24c2.7-2.92,4.12-7.49,6.95-10.22C285.56,171.7,289.11,171.07,292.56,173.06Z" style="fill:#fff"></path></g><polygon points="223.65 152 223.64 154.77 201.54 142.01 201.55 139.24 223.65 152" style="fill:#e0e0e0"></polygon><polygon points="201.56 134.56 201.56 137.33 229.85 153.67 229.85 150.9 201.56 134.56" style="fill:#e0e0e0"></polygon><polygon points="237.39 144.29 237.38 147.06 201.59 126.39 201.59 123.62 237.39 144.29" style="fill:#e0e0e0"></polygon><polygon points="254.02 149.21 254.01 151.97 201.6 121.72 201.61 118.95 254.02 149.21" style="fill:#e0e0e0"></polygon><polygon points="254.03 144.53 254.02 147.3 201.61 117.05 201.62 114.27 254.03 144.53" style="fill:#e0e0e0"></polygon><polygon points="229.85 123.72 229.84 128.03 201.63 111.73 201.64 107.43 229.85 123.72" style="fill:#e0e0e0"></polygon><g style="opacity:0.2"><path d="M316.66,152.78a5.55,5.55,0,0,1,2.51,4.36V161L187.65,85.08l0-3.86c0-1.6,1.14-2.25,2.53-1.44ZM194.49,86.91c.61.36,1.11.07,1.11-.63a2.45,2.45,0,0,0-1.1-1.91c-.61-.35-1.11-.07-1.11.64a2.43,2.43,0,0,0,1.1,1.9m3.22,1.86c.61.35,1.1.07,1.1-.63a2.41,2.41,0,0,0-1.1-1.91c-.61-.35-1.1-.07-1.11.63a2.42,2.42,0,0,0,1.11,1.91m-6.43-3.71c.61.35,1.1.07,1.11-.63a2.42,2.42,0,0,0-1.1-1.91c-.61-.35-1.11-.07-1.11.63a2.41,2.41,0,0,0,1.1,1.91" style="fill:#fff"></path></g><path d="M318.9,253.85a1.83,1.83,0,0,1-.66,1.55v0l3.06-1.94h0l.08-.06h0a1.79,1.79,0,0,0,.66-1.56l.27-92.84-3.16,2Z" style="opacity:0.1"></path><path d="M319.81,150.79l-126.45-73a1.68,1.68,0,0,0-2,0v0l-3,1.88a1.79,1.79,0,0,1,1.77.19l126.46,73a5.55,5.55,0,0,1,2.51,4.36V161l3.16-2v-3.86A5.53,5.53,0,0,0,319.81,150.79Z" style="fill:#fff;opacity:0.5"></path></g><g id="freepik--Chart--inject-2"><polygon points="443.7 263.19 430.61 270.75 430.61 346.63 443.7 354.19 456.8 346.63 456.8 270.75 443.7 263.19" style="fill:#969340"></polygon><polygon points="430.61 270.75 443.7 263.19 456.8 270.75 443.7 278.31 430.61 270.75" style="opacity:0"></polygon><polygon points="443.7 278.31 443.7 354.19 430.61 346.63 430.61 270.75 443.7 278.31" style="opacity:0.1"></polygon><polygon points="443.7 278.31 443.7 354.19 456.8 346.63 456.8 270.75 443.7 278.31" style="opacity:0.2"></polygon><polygon points="424.58 291.76 411.49 299.32 411.49 358.3 424.58 365.86 437.68 358.3 437.68 299.32 424.58 291.76" style="fill:#969340"></polygon><polygon points="411.49 299.32 424.58 291.76 437.68 299.32 424.58 306.89 411.49 299.32" style="fill:#fff;opacity:0.5"></polygon><polygon points="424.58 306.89 424.58 365.86 411.49 358.3 411.49 299.32 424.58 306.89" style="fill:#fff;opacity:0.4"></polygon><polygon points="424.58 306.89 424.58 365.86 437.68 358.3 437.68 299.32 424.58 306.89" style="fill:#fff;opacity:0.30000000000000004"></polygon><polygon points="404.62 334.1 391.52 341.66 391.52 369.73 404.62 377.3 417.72 369.73 417.72 341.66 404.62 334.1" style="fill:#969340"></polygon><polygon points="391.52 341.66 404.62 334.1 417.72 341.66 404.62 349.23 391.52 341.66" style="opacity:0"></polygon><polygon points="404.62 349.23 404.62 377.3 391.52 369.73 391.52 341.66 404.62 349.23" style="opacity:0.1"></polygon><polygon points="404.62 349.23 404.62 377.3 417.72 369.73 417.72 341.66 404.62 349.23" style="opacity:0.2"></polygon><polygon points="384.66 326.54 371.56 334.1 371.56 381.17 384.66 388.73 397.76 381.17 397.76 334.1 384.66 326.54" style="fill:#969340"></polygon><polygon points="371.56 334.1 384.66 326.54 397.76 334.1 384.66 341.66 371.56 334.1" style="fill:#fff;opacity:0.5"></polygon><polygon points="384.66 341.66 384.66 388.73 371.56 381.17 371.56 334.1 384.66 341.66" style="fill:#fff;opacity:0.4"></polygon><polygon points="384.66 341.66 384.66 388.73 397.76 381.17 397.76 334.1 384.66 341.66" style="fill:#fff;opacity:0.30000000000000004"></polygon></g><g id="freepik--character-2--inject-2"><path d="M179.9,249.85c-.8,1.48-1.59,3-2.39,4.46l2.12,1.44C179.76,253.84,179.77,251.75,179.9,249.85Z" style="fill:#ad6867"></path><path d="M199.88,267.27c5-4,9.1,3.48,12.11,11.8,1.83,5.05,3.71,10,4.9,13.07a6.29,6.29,0,0,1-.84,6L207.18,310l-4-8.56,4.91-7.45-5-9.14Z" style="fill:#e0e0e0"></path><path d="M152.16,306.88a26.22,26.22,0,0,1-8.5,2.48,15.85,15.85,0,0,1-8.64-1.5,11.65,11.65,0,0,1-5.73-6.62v0a2.71,2.71,0,0,1,3.39-.51,11.33,11.33,0,0,0,8.51,1,18.77,18.77,0,0,1-2.4-3c-.35-.53-.67-1.23-.32-1.76a1.21,1.21,0,0,1,1.36-.37,4.32,4.32,0,0,1,1.27.82,17.14,17.14,0,0,0,7.43,3.48C149.65,302.77,151.05,305,152.16,306.88Z" style="fill:#c48180"></path><path d="M167.56,422.2a3.64,3.64,0,0,0,2.59.72,30,30,0,0,0,8.22-1.15A17,17,0,0,0,182.7,420a11.84,11.84,0,0,0,3.8-3.88,31,31,0,0,1-.62-5.26c-2.27,0-4.63,0-6.9,0v3.7a35.16,35.16,0,0,1-11.38,5,1.84,1.84,0,0,0-.5.76A1.92,1.92,0,0,0,167.56,422.2Z" style="fill:#c48180"></path><path d="M187,418.33c-.21-.74-.38-1.5-.54-2.25a11.84,11.84,0,0,1-3.8,3.88,17,17,0,0,1-4.33,1.81,30,30,0,0,1-8.22,1.15,3.64,3.64,0,0,1-2.59-.72,1.92,1.92,0,0,1-.46-1.94,1.84,1.84,0,0,1,.5-.76c-.3.08-.61.16-.92.22a9.14,9.14,0,0,0-3.13,1,2.66,2.66,0,0,0-1.33,2.79,3.47,3.47,0,0,0,2.14,2,15.85,15.85,0,0,0,11.22.59c2.27-.74,4.46-2,6.85-1.95,1.36,0,2.85.49,4-.25a3.07,3.07,0,0,0,1.21-2.62A11.56,11.56,0,0,0,187,418.33Z" style="fill:#37474f"></path><path d="M195.61,396.1a2.61,2.61,0,0,0-2.29,2.16,3.87,3.87,0,0,0,1.55,2.75l3,2.9a7,7,0,0,0,2.85,2,3.93,3.93,0,0,0,3.35-.72,4.7,4.7,0,0,0,1.32-1.61c-.1-.67-.18-1.35-.31-2a5.34,5.34,0,0,0-.9-2.41c-.95-1.18-2.49-1.34-3.89-1.48a5.06,5.06,0,0,1-2.66-1.42A5.4,5.4,0,0,0,195.61,396.1Z" style="fill:#c48180"></path><path d="M205.37,403.55a4.7,4.7,0,0,1-1.32,1.61,3.93,3.93,0,0,1-3.35.72,7,7,0,0,1-2.85-2l-3-2.9a3.87,3.87,0,0,1-1.55-2.75,2.61,2.61,0,0,1,2.29-2.16,5.4,5.4,0,0,1,2,.12c-.1-.07-.19-.15-.3-.22a12.67,12.67,0,0,0-2.44-1.36,4.31,4.31,0,0,0-3-.4,3.18,3.18,0,0,0-2,2.94,5.57,5.57,0,0,0,1.28,3.5,25.11,25.11,0,0,0,2.64,2.72,31.85,31.85,0,0,1,3.4,3.85,22.05,22.05,0,0,0,2.41,2.94,4.94,4.94,0,0,0,3.42,1.45,2.91,2.91,0,0,0,2.54-1.62,4.46,4.46,0,0,0,.23-2C205.74,406.53,205.58,405,205.37,403.55Z" style="fill:#37474f"></path><path d="M174.46,315.75a459.24,459.24,0,0,0-.52,54s3.66,29.56,4.19,42c3,3,8.71,0,8.71,0,1.64-21.61,6-29.94,1.25-43.4l3.37-31,1.34,24.89,5.11,38.8c3.1,2.25,7.12,0,7.12,0,1.66-19,5.55-27.66,0-43.12,6.64-30.79,4.44-42.49,3.56-45.59Z" style="fill:#455a64"></path><path d="M202.86,324.44a15.93,15.93,0,0,1-10.42,3.88l-1,9.05.9,16.62,1.82-24A12.38,12.38,0,0,0,202.86,324.44Z" style="fill:#37474f"></path><path d="M199.88,267.27c5-4,9.1,3.48,12.11,11.8,1.83,5.05,3.71,10,4.9,13.07a6.29,6.29,0,0,1-.84,6L207.18,310l-4-8.56,4.91-7.45-5-9.14Z" style="opacity:0.1"></path><path d="M199.88,267.27c5-4,9.1,3.48,12.11,11.8,1.83,5.05,3.71,10,4.9,13.07a6.29,6.29,0,0,1-.84,6L207.18,310l-4-8.56,4.91-7.45-5-9.14Z" style="fill:#fff;opacity:0.5"></path><path d="M183.37,269.77c4.45-1.37,17.42-4.2,20.7-1.24,2.87,2.59,4.73,11.5.86,23a13.58,13.58,0,0,0,.46,10,59.57,59.57,0,0,1,3.92,11.26c-10.42,10.61-28.76,9-35.7,4.46a168.83,168.83,0,0,1,2.19-25.35Z" style="fill:#e0e0e0"></path><path d="M183.37,269.77c4.45-1.37,17.42-4.2,20.7-1.24,2.87,2.59,4.73,11.5.86,23a13.58,13.58,0,0,0,.46,10,59.57,59.57,0,0,1,3.92,11.26c-10.42,10.61-28.76,9-35.7,4.46a168.83,168.83,0,0,1,2.19-25.35Z" style="fill:#fff;opacity:0.4"></path><path d="M183.37,269.77c4.45-1.37,17.42-4.2,20.7-1.24,2.87,2.59,4.73,11.5.86,23a13.58,13.58,0,0,0,.46,10,59.57,59.57,0,0,1,3.92,11.26c-10.42,10.61-28.76,9-35.7,4.46a168.83,168.83,0,0,1,2.19-25.35Z" style="opacity:0.1"></path><path d="M180.25,246.33a7.47,7.47,0,0,1-3.64-7,9,9,0,0,1,4.55-6.85,10.59,10.59,0,0,1,8.27-.77c2.4.76,4.54,2.29,7,2.78,2.14.44,4.45.07,6.47.9,2.54,1,4,3.74,4.66,6.4a18,18,0,0,1-.95,11.29,23.87,23.87,0,0,1-8.83,9.65c-3.41,4.07-9.48,1.41-12.05-2S180.25,246.33,180.25,246.33Z" style="fill:#263238"></path><path d="M181.81,243.36a17.15,17.15,0,0,0-2.7,7.7,51.5,51.5,0,0,0-.11,8.24,5.26,5.26,0,0,0,.75,3,4.21,4.21,0,0,0,3.38,1.34c1.26,0,2.4,0,3.77-.05l.27,5.68c4.49,2.49,9.53.76,10.84-1l-.23-5.57c-7,1.31-10.74-1.08-11.4-5.4a4.89,4.89,0,0,0,4-1.05,4.6,4.6,0,0,0,1.32-3.82,2.9,2.9,0,0,0-.72-1.69,2.73,2.73,0,0,0-2.85-.6,4.31,4.31,0,0,0-2.25,2,10.87,10.87,0,0,0-1,2.89,2.62,2.62,0,0,1-.84-2.83c.19-.51.56-1,.48-1.55s-.71-1-1-1.53a2.1,2.1,0,0,1-.11-1.54,6.17,6.17,0,0,1,.68-1.42A14.34,14.34,0,0,0,181.81,243.36Z" style="fill:#c48180"></path><path d="M208.67,259.62a25.16,25.16,0,0,1-5.57-9,16.48,16.48,0,0,1-.12-10.5,10.71,10.71,0,0,1,3.34-4.93,7.27,7.27,0,0,1,5.66-1.53c3.14.58,5.39,3.61,6,6.75s-.23,6.37-1.25,9.4c-1.28,3.78-4.19,8.43-3.69,13.77A27.74,27.74,0,0,1,208.67,259.62Z" style="fill:#263238"></path><path d="M183.37,269.77c-8.21-3.58-9.15,4.24-13.66,12.56-2.76,5.35-6.17,10.5-6.17,10.5a62.12,62.12,0,0,1-15.19,7c-1.79,4.71,2.36,9.34,2.36,9.34l17.61-7.68a16,16,0,0,0,7.22-6.27C181.89,284.92,186.53,277.64,183.37,269.77Z" style="fill:#e0e0e0"></path><path d="M183.37,269.77c-8.21-3.58-9.15,4.24-13.66,12.56-2.76,5.35-6.17,10.5-6.17,10.5a62.12,62.12,0,0,1-15.19,7c-1.79,4.71,2.36,9.34,2.36,9.34l17.61-7.68a16,16,0,0,0,7.22-6.27C181.89,284.92,186.53,277.64,183.37,269.77Z" style="opacity:0.1"></path><path d="M183.37,269.77c-8.21-3.58-9.15,4.24-13.66,12.56-2.76,5.35-6.17,10.5-6.17,10.5a62.12,62.12,0,0,1-15.19,7c-1.79,4.71,2.36,9.34,2.36,9.34l17.61-7.68a16,16,0,0,0,7.22-6.27C181.89,284.92,186.53,277.64,183.37,269.77Z" style="fill:#fff;opacity:0.5"></path></g><g id="freepik--character-1--inject-2"><path d="M145.16,200.35l3.12-2.31a6.16,6.16,0,0,0,2.12-2.84l.74-2a7.54,7.54,0,0,1,2.61-3.49,26,26,0,0,0,4.78-4.6h0a2.88,2.88,0,0,1,.21,3.64,21.36,21.36,0,0,1-1.91,2.19l1.72.12a6,6,0,0,0,3.53-.87l4.36-2.67a.82.82,0,0,1,1.26.7,18.69,18.69,0,0,1-1.26,6.3,7.06,7.06,0,0,1-4.16,4.21c-2.31.89-4.56,1.66-5.85,2.09a7.21,7.21,0,0,0-2,1.06l-4.58,3.41Z" style="fill:#ffa8a7"></path><path d="M148.55,197.35l-3.94,2.53a7.92,7.92,0,0,0,1.47,3.89,7.81,7.81,0,0,0,3.6,2.69l3.61-3.41S149.81,202.51,148.55,197.35Z" style="fill:#969340"></path><path d="M148.55,197.35l-3.94,2.53a7.92,7.92,0,0,0,1.47,3.89,7.81,7.81,0,0,0,3.6,2.69l3.61-3.41S149.81,202.51,148.55,197.35Z" style="fill:#fff;opacity:0.5"></path><path d="M146.08,203.77a7.92,7.92,0,0,1-1.47-3.89l-12.3,7.94L125,187.5a7.67,7.67,0,0,0-6.24-5l-3.54-.45,3.31,23.79,5.65,11.34a7.55,7.55,0,0,0,11.55,2.47l13.91-13.16A7.81,7.81,0,0,1,146.08,203.77Z" style="fill:#969340"></path><path d="M146.08,203.77a7.92,7.92,0,0,1-1.47-3.89l-12.3,7.94L125,187.5a7.67,7.67,0,0,0-6.24-5l-3.54-.45,3.31,23.79,5.65,11.34a7.55,7.55,0,0,0,11.55,2.47l13.91-13.16A7.81,7.81,0,0,1,146.08,203.77Z" style="fill:#fff;opacity:0.4"></path><polygon points="132.31 207.82 127.64 211.32 131.01 204.2 132.31 207.82" style="opacity:0.2"></polygon><path d="M131,336.83a7.64,7.64,0,0,1-5.75,2.11,17.24,17.24,0,0,1-6.09-1.53c-1.95-.8-4.4-3-6.5-3a50.72,50.72,0,0,1-6.16-.42,31.86,31.86,0,0,1,.88-8.34l9.83-.26c2.65,3.63,7.81,6.65,11.71,7.79a3.42,3.42,0,0,1,2.43,2.58.2.2,0,0,1,0,.07A4.45,4.45,0,0,1,131,336.83Z" style="fill:#455a64"></path><path d="M112.63,334.41c2.1,0,4.55,2.2,6.5,3a17.24,17.24,0,0,0,6.09,1.53,7.64,7.64,0,0,0,5.75-2.11,4.45,4.45,0,0,0,.34-1,.2.2,0,0,0,0-.07,3,3,0,0,1,0,1.31,4.22,4.22,0,0,1-.34,1,7.65,7.65,0,0,1-5.75,2.12,17,17,0,0,1-6.09-1.54c-1.95-.8-4.4-3-6.5-3a46,46,0,0,1-6.06-.36c0-.43-.08-.87-.1-1.31A50.72,50.72,0,0,0,112.63,334.41Z" style="fill:#263238"></path><path d="M84.88,337.75a14.21,14.21,0,0,0,.3,3,7,7,0,0,0,2.72,4.35,8.76,8.76,0,0,0,4.33,1.15,9.67,9.67,0,0,0,4-.41,4.46,4.46,0,0,0,2.31-1.89V344a4.19,4.19,0,0,1-2.67,2.78,9.5,9.5,0,0,1-4,.4A8.79,8.79,0,0,1,87.54,346a6.9,6.9,0,0,1-2.72-4.35,14.08,14.08,0,0,1-.3-3,5,5,0,0,0-1.6-3.64,9.35,9.35,0,0,1-.69-.72,1.82,1.82,0,0,1-.43-1.3l.06-.54c.36.42,1.21,1.42,1.42,1.62A5.05,5.05,0,0,1,84.88,337.75Z" style="fill:#263238"></path><path d="M92.4,327.36a10.85,10.85,0,0,0,.77,6.05,23.24,23.24,0,0,0,3.19,5.26A14.49,14.49,0,0,1,98,341.11a4.41,4.41,0,0,1,.47,2.82,4.46,4.46,0,0,1-2.31,1.89,9.67,9.67,0,0,1-4,.41,8.76,8.76,0,0,1-4.33-1.15,7,7,0,0,1-2.72-4.35,14.21,14.21,0,0,1-.3-3,5.05,5.05,0,0,0-1.6-3.65c-.21-.2-1.06-1.2-1.42-1.62a11,11,0,0,1,1.47-4.22Z" style="fill:#455a64"></path><path d="M121.43,230.28l-.81,56.06L118,325.58c-6.7,4.24-11.55.77-11.55.77-2.54-18.59-2.88-30-1.5-37.76l-1.27-30.25-3.81,31.41-6.41,38.5c-6.87,4.45-11.72,0-11.72,0,0-14.25-1.27-30.19,2.66-40.46a236.17,236.17,0,0,1,1.85-56.93Z" style="fill:#37474f"></path><path d="M105.05,246.79l-1.4,11.55.6,14.17,2.58-23.29c6-2.34,6.75-5.63,6.75-5.63A18.34,18.34,0,0,1,105.05,246.79Z" style="fill:#263238"></path><path d="M108.7,181.32l6.56.7c5.37,4.73,8.14,14.66,7,25.63a196,196,0,0,0-.81,22.63c-14.54,10.63-32.9,2.89-35.21.58l1.08-13.45a9.37,9.37,0,0,0-.74-4.43c-1.37-3.19-3.82-9.47-4.15-14.34a25.4,25.4,0,0,1,2.65-12.53L94.59,182Z" style="fill:#969340"></path><g style="opacity:0.5"><path d="M108.7,181.32l6.56.7c5.37,4.73,8.14,14.66,7,25.63a196,196,0,0,0-.81,22.63c-14.54,10.63-32.9,2.89-35.21.58l1.08-13.45a9.37,9.37,0,0,0-.74-4.43c-1.37-3.19-3.82-9.47-4.15-14.34a25.4,25.4,0,0,1,2.65-12.53L94.59,182Z" style="fill:#fff"></path></g><path d="M110.52,190.88a70.81,70.81,0,0,1,5.4,25.6l-2.7,5.81L109,216.74a217.66,217.66,0,0,0-.51-25.49Z" style="fill:#969340"></path><path d="M110.75,186.11a19.37,19.37,0,0,1-.23,4.77,3.79,3.79,0,0,1-2,.37,16.58,16.58,0,0,1-3.27-3.95l3.27-1.19Z" style="fill:#969340"></path><path d="M108.48,186.11c-2.82,1-5.33,6.07-5.33,6.07-7.41-6.3-8.56-10.22-8.56-10.22a14.53,14.53,0,0,1,3.59-3.79Z" style="fill:#969340"></path><path d="M108.48,186.11c2.16.06,4.06,3.06,4.06,3.06.35-5.25-4.06-9.29-4.06-9.29Z" style="fill:#969340"></path><g style="opacity:0.35000000000000003"><path d="M108.48,186.11c-2.82,1-5.33,6.07-5.33,6.07-7.41-6.3-8.56-10.22-8.56-10.22a14.53,14.53,0,0,1,3.59-3.79Z" style="fill:#fff"></path><path d="M108.48,186.11c2.16.06,4.06,3.06,4.06,3.06.35-5.25-4.06-9.29-4.06-9.29Z" style="fill:#fff"></path></g><path d="M94.58,157a5.83,5.83,0,0,1,3.74-2l19.5,1.84c2.25,4.83.46,8,.46,8,.3,7.38.55,12.07-2.64,13.62a14.67,14.67,0,0,1-7.13,1A16.62,16.62,0,0,1,102,177.7l-.1,0a5.61,5.61,0,0,1-2.8-3.73,30.62,30.62,0,0,1-.67-4.36,18.59,18.59,0,0,0-.27-2.49,4.5,4.5,0,0,0-1.1-2.21,2.48,2.48,0,0,0-2.24-.76,1.82,1.82,0,0,0-.41.15C93.84,161,93.67,158.13,94.58,157Z" style="fill:#37474f"></path><path d="M101.73,157.54a7,7,0,0,1-.26,4.15,30.23,30.23,0,0,0-1.24,4,6.58,6.58,0,0,0,.54,4.06,4.71,4.71,0,0,0,3.11,2.52c2.09.45,4.14-.79,6.24-1.2a8.6,8.6,0,0,1,5.87,1.05,1,1,0,0,0,1.54-.82c.24-4.25.24-10.9-.38-14Z" style="fill:#ffa8a7"></path><polygon points="99.74 176.51 99.74 176.51 99.75 176.52 99.74 176.51" style="fill:#ffa8a7"></polygon><path d="M98,171.68s0,1.72.08,3.78a5.86,5.86,0,0,1-1.82-2.86A2.66,2.66,0,0,0,98,171.68Z" style="fill:#37474f"></path><path d="M116.82,153.7l2.43-1.71a5.26,5.26,0,0,1-.93,4.84,7.71,7.71,0,0,1-4.28,2.56,15.93,15.93,0,0,1-5,.23,35.87,35.87,0,0,1-7.26-1.35,5.76,5.76,0,0,1-2.85-1.51,3.87,3.87,0,0,1-.15-4.51,5.63,5.63,0,0,1,4-2.36,15.17,15.17,0,0,1,4.83.39,14.54,14.54,0,0,0,4.82.35,5,5,0,0,0,3.89-2.62C117.68,150.26,116.82,153.7,116.82,153.7Z" style="fill:#37474f"></path><polygon points="110.7 165.07 114.26 169.44 111 170.62 110.7 165.07" style="fill:#f28f8f"></polygon><path d="M108,172.79l2.75.85a1.68,1.68,0,0,1-1.85.87A1.55,1.55,0,0,1,108,172.79Z" style="fill:#f28f8f"></path><path d="M108,172.79l2.75.85a1.68,1.68,0,0,1-1.85.87A1.55,1.55,0,0,1,108,172.79Z" style="opacity:0.30000000000000004"></path><path d="M109.81,174.45a1.47,1.47,0,0,1-.9.06,1.41,1.41,0,0,1-.9-1.26,1.56,1.56,0,0,1,1.06.2A1.63,1.63,0,0,1,109.81,174.45Z" style="fill:#f28f8f"></path><path d="M105.86,166a1,1,0,1,0,2-.1,1,1,0,0,0-1-.94A1,1,0,0,0,105.86,166Z" style="fill:#263238"></path><path d="M114,165.26a1,1,0,1,0,.92-1A1,1,0,0,0,114,165.26Z" style="fill:#263238"></path><path d="M114.78,161.27l2.24,1.4a1.42,1.42,0,0,0-.5-1.53A1.64,1.64,0,0,0,114.78,161.27Z" style="fill:#263238"></path><path d="M106.42,161.61l-2.08,1.63a1.39,1.39,0,0,1,.34-1.57A1.63,1.63,0,0,1,106.42,161.61Z" style="fill:#263238"></path><path d="M93,165.68a2.77,2.77,0,0,1,1.35-1.43,1.82,1.82,0,0,1,.41-.15,2.48,2.48,0,0,1,2.24.76,4.5,4.5,0,0,1,1.1,2.21,18.59,18.59,0,0,1,.27,2.49A31,31,0,0,0,99.1,174a5.55,5.55,0,0,0,2.78,3.62l.1,0a16.62,16.62,0,0,0,6.53,1.76v6.65l-9.22-5.45a2.24,2.24,0,0,1-1.09-1.88c0-1.07,0-2.24-.07-3.32-.05-2.06-.08-3.78-.08-3.78a2.66,2.66,0,0,1-1.74.92,2.3,2.3,0,0,1-.91,0,3.42,3.42,0,0,1-2-1.76,6.44,6.44,0,0,1-.64-2.68A5.41,5.41,0,0,1,93,165.68Z" style="fill:#ffa8a7"></path><path d="M100.66,177.57a6.31,6.31,0,0,1-1.13-2.4,5.48,5.48,0,0,0,2.35,2.48l.1,0a16.62,16.62,0,0,0,6.53,1.76v1.7a16.39,16.39,0,0,1-3.86-.82A8.84,8.84,0,0,1,100.66,177.57Z" style="opacity:0.2"></path><path d="M62.78,209.79l-3.48-1.72a6.2,6.2,0,0,1-2.6-2.42l-1.09-1.87a7.62,7.62,0,0,0-3.19-3,26,26,0,0,1-5.52-3.67h0a2.88,2.88,0,0,0,.45,3.62,20.38,20.38,0,0,0,2.26,1.81l-1.67.42a5.94,5.94,0,0,1-3.63-.22l-4.77-1.85a.82.82,0,0,0-1.11.91,18.7,18.7,0,0,0,2.36,6,7.09,7.09,0,0,0,4.84,3.4c2.44.46,4.79.82,6.13,1a7.2,7.2,0,0,1,2.21.69l5.11,2.53Z" style="fill:#ffa8a7"></path><path d="M66.09,215.15a8.71,8.71,0,0,0,.61-4.54l6.53,3.1A135.87,135.87,0,0,0,76,199.25c.78-6.58.6-11,9.06-13.14,0,0,5.71,9.41,1.65,17.73,0,6.13-1.79,20.7-7.86,23-5,1.93-8.55-2.84-16.21-7.79A8.69,8.69,0,0,0,66.09,215.15Z" style="fill:#969340"></path><path d="M66.09,215.15a8.71,8.71,0,0,0,.61-4.54l6.53,3.1A135.87,135.87,0,0,0,76,199.25c.78-6.58.6-11,9.06-13.14,0,0,5.71,9.41,1.65,17.73,0,6.13-1.79,20.7-7.86,23-5,1.93-8.55-2.84-16.21-7.79A8.69,8.69,0,0,0,66.09,215.15Z" style="fill:#fff;opacity:0.4"></path><path d="M77.61,218a8.17,8.17,0,0,0-4.38-4.33s.19-.76.48-2C75,212.35,78.26,214.34,77.61,218Z" style="opacity:0.2"></path><path d="M60.69,208.48l6,2.13a8.5,8.5,0,0,1-4.06,8.48,42.72,42.72,0,0,1-5-4S60.26,214.2,60.69,208.48Z" style="fill:#969340"></path><path d="M60.69,208.48l6,2.13a8.5,8.5,0,0,1-4.06,8.48,42.72,42.72,0,0,1-5-4S60.26,214.2,60.69,208.48Z" style="fill:#fff;opacity:0.5"></path></g></svg>